<svg width="49" height="48" viewBox="0 0 49 48" fill="none" xmlns="http://www.w3.org/2000/svg">
<rect x="1" y="0.5" width="47" height="47" rx="23.5" fill="#131313"/>
<rect x="1" y="0.5" width="47" height="47" rx="23.5" stroke="#4E4E4E"/>
<path d="M30.506 24.6901C30.4783 21.9034 32.7786 20.5668 32.8814 20.4993C31.5886 18.6091 29.5746 18.3497 28.8578 18.3202C27.1451 18.1462 25.5143 19.329 24.6454 19.329C23.7784 19.329 22.436 18.3457 21.0158 18.3707C19.1475 18.3985 17.4254 19.4574 16.464 21.1298C14.5237 24.4956 15.9676 29.4838 17.8583 32.2156C18.7826 33.5508 19.8849 35.0533 21.331 34.9983C22.7248 34.9433 23.2507 34.0968 24.9356 34.0968C26.6206 34.0968 27.0937 34.9983 28.568 34.9701C30.0669 34.9429 31.0172 33.6094 31.9338 32.2688C32.995 30.7175 33.4319 29.2155 33.4578 29.1395C33.4252 29.1243 30.536 28.0175 30.506 24.6901Z" fill="white"/>
<path d="M27.7361 16.5125C28.503 15.5815 29.0226 14.2879 28.8813 13C27.7745 13.0447 26.4348 13.7356 25.6402 14.6657C24.9283 15.4912 24.3058 16.8054 24.4726 18.07C25.7073 18.1657 26.9665 17.4417 27.7361 16.5125Z" fill="white"/>
</svg>
