<svg width="49" height="48" viewBox="0 0 49 48" fill="none" xmlns="http://www.w3.org/2000/svg">
<rect x="1" y="0.5" width="47" height="47" rx="23.5" fill="#131313"/>
<rect x="1" y="0.5" width="47" height="47" rx="23.5" stroke="#4E4E4E"/>
<path d="M24.5 12C21.3174 12 18.2652 13.2643 16.0147 15.5147C13.7643 17.7652 12.5 20.8174 12.5 24C12.5 27.1826 13.7643 30.2348 16.0147 32.4853C18.2652 34.7357 21.3174 36 24.5 36C27.6826 36 30.7348 34.7357 32.9853 32.4853C35.2357 30.2348 36.5 27.1826 36.5 24C36.5 20.8174 35.2357 17.7652 32.9853 15.5147C30.7348 13.2643 27.6826 12 24.5 12Z" fill="#039BE5"/>
<path d="M26.1247 27.1804H29.2302L29.7178 24.0257H26.1241V22.3015C26.1241 20.991 26.5523 19.8289 27.7782 19.8289H29.7481V17.0758C29.402 17.0291 28.67 16.9268 27.2869 16.9268C24.3986 16.9268 22.7054 18.452 22.7054 21.927V24.0257H19.7363V27.1804H22.7054V35.8514C23.2934 35.9398 23.889 35.9998 24.5003 35.9998C25.053 35.9998 25.5923 35.9493 26.1247 35.8773V27.1804Z" fill="white"/>
</svg>
