<svg width="49" height="48" viewBox="0 0 49 48" fill="none" xmlns="http://www.w3.org/2000/svg">
<rect x="1" y="0.5" width="47" height="47" rx="23.5" fill="#131313"/>
<rect x="1" y="0.5" width="47" height="47" rx="23.5" stroke="#4E4E4E"/>
<mask id="mask0_2010_31054" style="mask-type:luminance" maskUnits="userSpaceOnUse" x="12" y="12" width="25" height="24">
<path d="M36.2209 21.8182H24.7791V26.4545H31.3651C30.7512 29.4 28.1837 31.0909 24.7791 31.0909C20.7605 31.0909 17.5233 27.9273 17.5233 24C17.5233 20.0727 20.7605 16.9091 24.7791 16.9091C26.5093 16.9091 28.0721 17.5091 29.3 18.4909L32.8721 15C30.6953 13.1455 27.9047 12 24.7791 12C17.9698 12 12.5 17.3455 12.5 24C12.5 30.6545 17.9698 36 24.7791 36C30.9186 36 36.5 31.6364 36.5 24C36.5 23.2909 36.3884 22.5273 36.2209 21.8182Z" fill="white"/>
</mask>
<g mask="url(#mask0_2010_31054)">
<path d="M11.3838 31.091V16.9092L20.8722 24.0001L11.3838 31.091Z" fill="#FBBC05"/>
</g>
<mask id="mask1_2010_31054" style="mask-type:luminance" maskUnits="userSpaceOnUse" x="12" y="12" width="25" height="24">
<path d="M36.2209 21.8182H24.7791V26.4545H31.3651C30.7512 29.4 28.1837 31.0909 24.7791 31.0909C20.7605 31.0909 17.5233 27.9273 17.5233 24C17.5233 20.0727 20.7605 16.9091 24.7791 16.9091C26.5093 16.9091 28.0721 17.5091 29.3 18.4909L32.8721 15C30.6953 13.1455 27.9047 12 24.7791 12C17.9698 12 12.5 17.3455 12.5 24C12.5 30.6545 17.9698 36 24.7791 36C30.9186 36 36.5 31.6364 36.5 24C36.5 23.2909 36.3884 22.5273 36.2209 21.8182Z" fill="white"/>
</mask>
<g mask="url(#mask1_2010_31054)">
<path d="M11.3838 16.9092L20.8722 24.0001L24.7791 20.6728L38.1745 18.5455V10.9092H11.3838V16.9092Z" fill="#EA4335"/>
</g>
<mask id="mask2_2010_31054" style="mask-type:luminance" maskUnits="userSpaceOnUse" x="12" y="12" width="25" height="24">
<path d="M36.2209 21.8182H24.7791V26.4545H31.3651C30.7512 29.4 28.1837 31.0909 24.7791 31.0909C20.7605 31.0909 17.5233 27.9273 17.5233 24C17.5233 20.0727 20.7605 16.9091 24.7791 16.9091C26.5093 16.9091 28.0721 17.5091 29.3 18.4909L32.8721 15C30.6953 13.1455 27.9047 12 24.7791 12C17.9698 12 12.5 17.3455 12.5 24C12.5 30.6545 17.9698 36 24.7791 36C30.9186 36 36.5 31.6364 36.5 24C36.5 23.2909 36.3884 22.5273 36.2209 21.8182Z" fill="white"/>
</mask>
<g mask="url(#mask2_2010_31054)">
<path d="M11.3838 31.091L28.128 18.5455L32.5373 19.091L38.1745 10.9092V37.091H11.3838V31.091Z" fill="#34A853"/>
</g>
<mask id="mask3_2010_31054" style="mask-type:luminance" maskUnits="userSpaceOnUse" x="12" y="12" width="25" height="24">
<path d="M36.2209 21.8182H24.7791V26.4545H31.3651C30.7512 29.4 28.1837 31.0909 24.7791 31.0909C20.7605 31.0909 17.5233 27.9273 17.5233 24C17.5233 20.0727 20.7605 16.9091 24.7791 16.9091C26.5093 16.9091 28.0721 17.5091 29.3 18.4909L32.8721 15C30.6953 13.1455 27.9047 12 24.7791 12C17.9698 12 12.5 17.3455 12.5 24C12.5 30.6545 17.9698 36 24.7791 36C30.9186 36 36.5 31.6364 36.5 24C36.5 23.2909 36.3884 22.5273 36.2209 21.8182Z" fill="white"/>
</mask>
<g mask="url(#mask3_2010_31054)">
<path d="M38.1745 37.091L20.8722 24.0001L18.6396 22.3637L38.1745 16.9092V37.091Z" fill="#4285F4"/>
</g>
</svg>
