<svg width="108" height="48" viewBox="0 0 108 48" fill="none" xmlns="http://www.w3.org/2000/svg">
<path d="M15.6745 34.3102C14.3477 34.3102 13.1243 34.0862 12.0043 33.6382C10.8843 33.1729 9.91077 32.5268 9.08369 31.6997C8.27385 30.8554 7.64492 29.8646 7.19692 28.7274C6.74892 27.5902 6.52492 26.3409 6.52492 24.9797C6.52492 23.5323 6.77477 22.1711 7.27446 20.896C7.79138 19.6209 8.51508 18.5009 9.44554 17.536C10.376 16.5711 11.4702 15.8129 12.728 15.2615C13.9858 14.7102 15.3643 14.4345 16.8634 14.4345C18.2763 14.4345 19.5255 14.6757 20.6111 15.1582C21.7138 15.6234 22.6271 16.2523 23.3508 17.0449C24.0745 17.8203 24.5742 18.6818 24.8498 19.6295L21.2055 21.232C20.9298 20.3015 20.4129 19.5434 19.6548 18.9575C18.8966 18.3545 17.9231 18.0529 16.7342 18.0529C15.8382 18.0529 15.0111 18.2252 14.2529 18.5698C13.512 18.9145 12.8572 19.4055 12.2886 20.0431C11.7372 20.6634 11.3065 21.3957 10.9963 22.24C10.6862 23.0843 10.5311 24.0062 10.5311 25.0055C10.5311 26.16 10.7378 27.168 11.1514 28.0295C11.5822 28.8738 12.1766 29.5286 12.9348 29.9938C13.7102 30.4591 14.6148 30.6917 15.6486 30.6917C16.8892 30.6917 17.9489 30.3815 18.8277 29.7612C19.7065 29.1237 20.344 28.3397 20.7403 27.4092L24.2037 29.2185C23.8074 30.1662 23.1957 31.0277 22.3686 31.8031C21.5588 32.5612 20.5852 33.1729 19.448 33.6382C18.3108 34.0862 17.0529 34.3102 15.6745 34.3102ZM28.9418 34.3102C27.9941 34.3102 27.167 34.1637 26.4606 33.8708C25.7541 33.5778 25.2027 33.1471 24.8064 32.5785C24.4274 31.9926 24.2378 31.2862 24.2378 30.4591C24.2378 29.5286 24.4704 28.7446 24.9357 28.1071C25.4181 27.4523 26.0643 26.9268 26.8741 26.5305C27.7012 26.1342 28.6317 25.8585 29.6655 25.7034L34.1111 25.0055L33.8267 27.8486L30.2083 28.5206C29.6741 28.624 29.2089 28.8135 28.8126 29.0892C28.4335 29.3477 28.244 29.7268 28.244 30.2265C28.244 30.6572 28.399 30.976 28.7092 31.1828C29.0194 31.3723 29.4157 31.4671 29.8981 31.4671C30.5357 31.4671 31.0957 31.3206 31.5781 31.0277C32.0778 30.7348 32.4827 30.3471 32.7929 29.8646C33.1203 29.3822 33.3184 28.8566 33.3874 28.288L33.8784 24.6954C33.9301 24.2991 33.8612 23.9631 33.6717 23.6874C33.4821 23.4117 33.215 23.1963 32.8704 23.0412C32.5258 22.8862 32.1467 22.8086 31.7332 22.8086C30.9923 22.8086 30.3289 23.0154 29.743 23.4289C29.1572 23.8252 28.7178 24.3335 28.4249 24.9538L25.4267 23.3255C25.7886 22.5329 26.2969 21.8609 26.9517 21.3095C27.6064 20.7582 28.3646 20.336 29.2261 20.0431C30.0877 19.7329 31.0009 19.5778 31.9658 19.5778C33.1547 19.5778 34.2058 19.8018 35.119 20.2498C36.0495 20.6978 36.756 21.3182 37.2384 22.1108C37.7381 22.9034 37.9104 23.8252 37.7554 24.8763L36.4889 34H32.8446L33.1547 31.7255L34.1886 31.648C33.7061 32.2683 33.1978 32.7766 32.6637 33.1729C32.1295 33.5692 31.5523 33.8535 30.932 34.0258C30.3289 34.2154 29.6655 34.3102 28.9418 34.3102ZM38.0399 34L40.0042 19.888H43.6485L43.1833 23.2738L42.9765 22.7828C43.4589 21.5938 44.0793 20.7926 44.8374 20.3791C45.6128 19.9483 46.4916 19.7329 47.4737 19.7329H48.3008L47.8356 23.0929H46.6208C45.6731 23.0929 44.8633 23.3945 44.1913 23.9975C43.5365 24.6006 43.1229 25.488 42.9506 26.6597L41.9426 34H38.0399ZM46.7175 34L48.6818 19.888H52.3261L51.8609 23.2738L51.6541 22.7828C52.1366 21.5938 52.7569 20.7926 53.515 20.3791C54.2904 19.9483 55.1692 19.7329 56.1514 19.7329H56.9784L56.5132 23.0929H55.2984C54.3507 23.0929 53.5409 23.3945 52.8689 23.9975C52.2141 24.6006 51.8006 25.488 51.6283 26.6597L50.6203 34H46.7175ZM56.9201 39.7378C56.4548 39.7378 56.0327 39.6948 55.6536 39.6086C55.2745 39.5225 54.9472 39.4018 54.6715 39.2468L54.9041 36.1452C55.1453 36.2142 55.421 36.2658 55.7312 36.3003C56.0413 36.352 56.3084 36.3778 56.5324 36.3778C57.0148 36.3778 57.4198 36.2831 57.7472 36.0935C58.0918 35.904 58.3847 35.6628 58.6259 35.3698C58.8672 35.0769 59.0825 34.784 59.2721 34.4911L60.5644 32.3975L60.2025 35.6283L56.2222 19.888H60.2025L62.7355 31.0794H61.1588L66.845 19.888H71.213L62.9681 35.4215C62.4512 36.4037 61.8825 37.2135 61.2622 37.8511C60.6419 38.4886 59.9699 38.9625 59.2462 39.2726C58.5225 39.5828 57.7472 39.7378 56.9201 39.7378ZM77.0231 34.3102C75.6791 34.3102 74.4644 34.0172 73.3788 33.4314C72.2933 32.8283 71.4318 32.0012 70.7942 30.9502C70.1567 29.8991 69.8379 28.7015 69.8379 27.3575C69.8379 26.272 70.0447 25.2554 70.4582 24.3077C70.8718 23.36 71.449 22.5329 72.1899 21.8265C72.9308 21.12 73.7838 20.5686 74.7487 20.1723C75.7136 19.776 76.7474 19.5778 77.8502 19.5778C79.1942 19.5778 80.409 19.8794 81.4945 20.4825C82.5801 21.0683 83.433 21.8868 84.0533 22.9378C84.6908 23.9717 85.0096 25.1692 85.0096 26.5305C85.0096 27.616 84.8028 28.6326 84.3893 29.5803C83.9758 30.5108 83.3985 31.3378 82.6576 32.0615C81.9167 32.768 81.0638 33.3194 80.0988 33.7157C79.1339 34.112 78.1087 34.3102 77.0231 34.3102ZM77.0748 30.8209C77.8502 30.8209 78.5308 30.6314 79.1167 30.2523C79.7025 29.856 80.1591 29.3305 80.4865 28.6757C80.8139 28.0209 80.9776 27.2886 80.9776 26.4788C80.9776 25.8068 80.8484 25.2209 80.5899 24.7212C80.3314 24.2043 79.961 23.7994 79.4785 23.5065C79.0133 23.2135 78.4533 23.0671 77.7985 23.0671C77.0231 23.0671 76.3339 23.2652 75.7308 23.6615C75.145 24.0406 74.6884 24.5575 74.361 25.2123C74.0336 25.8671 73.8699 26.5994 73.8699 27.4092C73.8699 28.0812 73.9991 28.6757 74.2576 29.1926C74.5161 29.6923 74.8865 30.0886 75.369 30.3815C75.8514 30.6745 76.4201 30.8209 77.0748 30.8209ZM85.0425 34L87.0068 19.888H90.6253L90.2634 22.6794L90.1084 21.9557C90.5564 21.1114 91.1508 20.5083 91.8917 20.1465C92.6499 19.7674 93.5028 19.5778 94.4505 19.5778C95.5361 19.5778 96.4579 19.8363 97.2161 20.3532C97.9742 20.8529 98.5256 21.5335 98.8702 22.3951C99.2321 23.2566 99.3354 24.2215 99.1804 25.2898L97.9656 34H94.0887L95.2259 25.7551C95.3465 24.9452 95.2001 24.2991 94.7865 23.8166C94.373 23.3169 93.7871 23.0671 93.029 23.0671C92.5293 23.0671 92.0641 23.1791 91.6333 23.4031C91.2197 23.6271 90.8751 23.9372 90.5994 24.3335C90.3237 24.7298 90.1428 25.2037 90.0567 25.7551L88.9194 34H85.0425Z" fill="#E6E6E6"/>
<path d="M14.6924 16.3848H45.3847" stroke="url(#paint0_linear_1041_38)" stroke-width="2.15385"/>
<path d="M55.6152 38H86.3075" stroke="url(#paint1_linear_1041_38)" stroke-width="2.15385"/>
<path d="M58.9229 20.7695H64.3075" stroke="url(#paint2_linear_1041_38)" stroke-width="2.15385"/>
<path d="M79.3848 20.7695H84.7694" stroke="url(#paint3_linear_1041_38)" stroke-width="2.15385"/>
<path d="M97.6152 32.6152H103" stroke="url(#paint4_linear_1041_38)" stroke-width="2.15385"/>
<defs>
<linearGradient id="paint0_linear_1041_38" x1="14.6924" y1="16.8848" x2="45.3847" y2="16.8848" gradientUnits="userSpaceOnUse">
<stop stop-color="white"/>
<stop offset="1" stop-color="white" stop-opacity="0"/>
</linearGradient>
<linearGradient id="paint1_linear_1041_38" x1="55.6152" y1="38.5" x2="86.3075" y2="38.5" gradientUnits="userSpaceOnUse">
<stop stop-color="white"/>
<stop offset="1" stop-color="white" stop-opacity="0"/>
</linearGradient>
<linearGradient id="paint2_linear_1041_38" x1="58.9229" y1="21.2695" x2="64.3075" y2="21.2695" gradientUnits="userSpaceOnUse">
<stop stop-color="white"/>
<stop offset="1" stop-color="white" stop-opacity="0"/>
</linearGradient>
<linearGradient id="paint3_linear_1041_38" x1="79.3848" y1="21.2695" x2="84.7694" y2="21.2695" gradientUnits="userSpaceOnUse">
<stop stop-color="white"/>
<stop offset="1" stop-color="white" stop-opacity="0"/>
</linearGradient>
<linearGradient id="paint4_linear_1041_38" x1="97.6152" y1="33.1152" x2="103" y2="33.1152" gradientUnits="userSpaceOnUse">
<stop stop-color="white"/>
<stop offset="1" stop-color="white" stop-opacity="0"/>
</linearGradient>
</defs>
</svg>
