<svg width="24" height="24" viewBox="0 0 24 24" fill="none" xmlns="http://www.w3.org/2000/svg">
<g clip-path="url(#clip0_1066_47)">
<path d="M12 2.25C10.0716 2.25 8.18657 2.82183 6.58319 3.89317C4.97982 4.96451 3.73013 6.48726 2.99218 8.26884C2.25422 10.0504 2.06114 12.0108 2.43735 13.9021C2.81355 15.7934 3.74215 17.5307 5.10571 18.8943C6.46928 20.2579 8.20656 21.1865 10.0979 21.5627C11.9892 21.9389 13.9496 21.7458 15.7312 21.0078C17.5127 20.2699 19.0355 19.0202 20.1068 17.4168C21.1782 15.8134 21.75 13.9284 21.75 12C21.7473 9.41498 20.7192 6.93661 18.8913 5.10872C17.0634 3.28084 14.585 2.25273 12 2.25ZM16.8356 7.66781L13.8356 13.6678C13.7989 13.7401 13.7401 13.7989 13.6678 13.8356L7.66782 16.8356C7.59738 16.871 7.51758 16.8833 7.43975 16.8708C7.36193 16.8582 7.29004 16.8214 7.2343 16.7657C7.17856 16.71 7.1418 16.6381 7.12925 16.5603C7.1167 16.4824 7.12899 16.4026 7.16438 16.3322L10.1644 10.3322C10.2011 10.2599 10.2599 10.2011 10.3322 10.1644L16.3322 7.16437C16.4026 7.12899 16.4824 7.11669 16.5603 7.12925C16.6381 7.1418 16.71 7.17856 16.7657 7.2343C16.8214 7.29004 16.8582 7.36193 16.8708 7.43975C16.8833 7.51757 16.871 7.59737 16.8356 7.66781Z" fill="white"/>
</g>
<defs>
<clipPath id="clip0_1066_47">
<rect width="24" height="24" fill="white"/>
</clipPath>
</defs>
</svg>
